HIERARCHY
ROOT Hips
{
  OFFSET 0.0000 0.0000 0.0000
  CHANNELS 6 Xposition Yposition Zposition Zrotation Xrotation Yrotation
  JOINT LeftHip
  {
    OFFSET 3.4300 -0.0000 0.0000
    CHANNELS 3 Zrotation Xrotation Yrotation
    JOINT LeftKnee
    {
      OFFSET 0.0000 -18.4700 0.0000
      CHANNELS 3 Zrotation Xrotation Yrotation
      JOINT LeftAnkle
      {
        OFFSET -0.0000 -17.9500 0.0000
        CHANNELS 3 Zrotation Xrotation Yrotation
        End Site
        {
            OFFSET 0.0000 -3.1200 0.0000
        }
      }
    }
  }
  JOINT RightHip
  {
    OFFSET -3.4300 -0.0000 0.0000
    CHANNELS 3 Zrotation Xrotation Yrotation
    JOINT RightKnee
    {
      OFFSET -0.0000 -18.4700 0.0000
      CHANNELS 3 Zrotation Xrotation Yrotation
      JOINT RightAnkle
      {
        OFFSET 0.0000 -17.9500 -0.0000
        CHANNELS 3 Zrotation Xrotation Yrotation
        End Site
        {
            OFFSET 0.0000 -3.1200 0.0000
        }
      }
    }
  }
  JOINT Chest
  {
    OFFSET 0.0000 4.5700 -0.0000
    CHANNELS 3 Zrotation Xrotation Yrotation
    JOINT Chest2
    {
      OFFSET 0.0000 6.5700 0.0000
      CHANNELS 3 Zrotation Xrotation Yrotation
      JOINT LeftCollar
      {
        OFFSET 1.0600 4.1900 1.7600
        CHANNELS 3 Zrotation Xrotation Yrotation
        JOINT LeftShoulder
        {
          OFFSET 5.8100 0.0000 0.0000
          CHANNELS 3 Zrotation Xrotation Yrotation
          JOINT LeftElbow
          {
            OFFSET -0.0000 -12.0800 0.0000
            CHANNELS 3 Zrotation Xrotation Yrotation
            JOINT LeftWrist
            {
              OFFSET 0.0000 -9.8200 0.0000
              CHANNELS 3 Zrotation Xrotation Yrotation
              End Site
              {
                  OFFSET 0.0000 -7.3700 0.0000
              }
            }
          }
        }
      }
      JOINT RightCollar
      {
        OFFSET -1.0600 4.1900 1.7600
        CHANNELS 3 Zrotation Xrotation Yrotation
        JOINT RightShoulder
        {
          OFFSET -6.0600 -0.0000 -0.0000
          CHANNELS 3 Zrotation Xrotation Yrotation
          JOINT RightElbow
          {
            OFFSET 0.0000 -11.0800 0.0000
            CHANNELS 3 Zrotation Xrotation Yrotation
            JOINT RightWrist
            {
              OFFSET 0.0000 -9.8200 0.0000
              CHANNELS 3 Zrotation Xrotation Yrotation
              End Site
              {
                  OFFSET 0.0000 -7.1400 0.0000
              }
            }
          }
        }
      }
    }
    JOINT Neck
    {
      OFFSET 0.0000 10.6200 0.0000
      CHANNELS 3 Zrotation Xrotation Yrotation
      JOINT Head
      {
        OFFSET 0.0000 5.1900 0.0000
        CHANNELS 3 Zrotation Xrotation Yrotation
        End Site
        {
            OFFSET 0.0000 4.1400 0.0000
        }
      }
    }
  }
}
MOTION
Frames:	19
Frame Time:	0.033333
9.2374 42.1728 4.4565 -32.45 -8.72 37.70 16.87 -26.87 -13.31 -0.49 23.23 2.07 14.45 -0.71 -1.15 -57.69 -54.77 -83.44 177.78 66.25 -160.47 20.15 -10.71 1.99 12.31 31.05 -17.56 0.00 0.00 0.00 -5.21 0.93 -3.62 78.50 -40.31 -12.00 26.69 -28.42 11.94 29.48 -8.32 2.65 -4.04 0.09 -1.71 -19.80 11.83 -28.78 81.05 -82.17 90.41 -32.63 -1.35 -0.90 17.99 10.08 -25.27 14.37 -20.80 -19.86 
8.6876 42.3289 4.6059 -32.81 -9.18 37.11 19.20 -27.63 -11.11 -1.00 24.31 -0.02 12.42 -2.46 -0.74 -55.69 -56.96 -81.30 178.59 67.50 -162.84 21.72 -9.65 1.97 11.43 32.00 -16.50 0.00 0.00 0.00 -4.83 0.88 -3.39 79.39 -40.48 -10.60 28.51 -27.77 12.55 26.99 -9.08 2.60 -3.99 0.08 -1.83 -18.03 10.43 -26.83 87.98 -82.55 98.60 -31.98 -0.71 -0.70 17.65 9.52 -24.45 14.47 -20.90 -19.17 
8.4073 42.3724 4.7114 -32.74 -8.92 37.97 19.58 -28.54 -8.05 -0.32 24.64 -4.07 11.82 -2.79 -0.67 -56.30 -56.89 -82.12 178.77 68.22 -163.54 21.69 -8.57 1.74 10.58 31.88 -16.39 0.00 0.00 0.00 -4.81 0.91 -3.63 78.89 -40.86 -14.64 26.75 -27.30 16.01 24.66 -6.38 1.77 -2.95 0.07 -2.38 -17.97 8.64 -23.60 84.94 -82.82 98.60 -31.86 -0.62 -0.67 19.10 9.52 -24.36 13.38 -22.10 -18.35 
8.1477 42.3697 4.8167 -32.70 -8.28 38.70 19.73 -29.51 -7.96 -0.90 24.86 -4.49 11.33 -3.16 -0.66 -55.83 -57.16 -82.50 179.91 69.49 -167.01 21.32 -6.25 1.30 9.86 31.49 -16.20 0.00 0.00 0.00 -5.08 0.89 -3.38 76.54 -40.94 -16.76 28.49 -25.81 17.24 19.79 -5.59 1.28 -3.13 0.07 -2.33 -16.93 7.98 -22.41 76.75 -82.83 92.69 -31.58 -1.02 -0.78 17.44 9.79 -23.39 14.41 -22.57 -17.92 
8.0485 42.4098 4.8949 -32.56 -8.09 38.18 20.27 -29.16 -7.41 -1.23 24.47 -4.33 10.78 -3.38 -0.64 -52.50 -57.89 -79.32 -179.07 71.41 -170.15 21.19 -4.25 0.93 9.23 31.45 -15.36 0.00 0.00 0.00 -5.15 0.78 -2.53 73.99 -39.77 -19.22 29.40 -24.55 17.75 14.63 -3.85 0.72 -3.89 0.07 -2.03 -16.08 7.72 -21.43 72.54 -82.95 90.24 -30.25 -0.81 -0.69 15.48 8.73 -22.22 14.80 -21.70 -17.65 
7.8793 42.5473 5.1652 -31.76 -7.14 35.09 21.67 -27.03 -3.30 -1.65 23.05 -4.74 10.00 -3.47 -0.63 -45.88 -61.43 -71.88 -177.37 73.50 -174.02 21.44 -3.59 0.77 6.27 31.28 -11.87 0.00 0.00 0.00 -4.95 0.60 -1.20 69.89 -38.06 -23.02 28.81 -25.01 16.92 10.22 -0.81 0.23 -3.95 0.07 -2.05 -16.86 6.79 -18.78 62.30 -83.06 82.53 -28.24 -0.05 -0.45 16.19 7.41 -21.58 12.97 -21.33 -16.81 
7.8679 42.6705 5.3122 -31.22 -6.26 33.52 22.03 -26.37 -1.22 -2.03 22.70 -4.87 9.39 -3.94 -0.57 -38.15 -61.82 -64.40 -176.58 77.71 -176.46 19.17 -2.53 0.40 4.60 30.63 -10.35 0.00 0.00 0.00 -3.66 0.33 0.68 63.84 -36.54 -28.40 26.75 -24.74 17.25 8.07 1.37 0.03 -4.01 0.07 -2.09 -17.91 5.62 -16.91 45.82 -82.13 69.81 -25.40 0.47 -0.28 15.60 6.65 -20.54 12.54 -21.02 -16.03 
7.8287 42.7558 5.5060 -30.47 -5.41 31.88 22.40 -25.24 1.17 -2.49 21.90 -5.22 8.83 -4.05 -0.58 -30.03 -63.09 -55.78 -173.08 80.91 177.18 17.60 -1.64 0.21 2.96 29.71 -9.11 0.00 0.00 0.00 -3.22 0.21 1.65 59.24 -33.06 -32.97 25.08 -24.40 19.74 7.87 3.12 -0.10 -4.20 0.07 -2.09 -18.03 4.41 -15.17 28.20 -79.77 57.03 -22.24 0.20 -0.30 14.71 6.91 -19.53 12.83 -21.19 -15.28 
7.8618 42.8169 5.7429 -29.53 -4.70 29.75 22.39 -23.04 3.55 -2.59 20.25 -5.61 7.86 -3.90 -0.59 -19.21 -62.93 -43.99 -163.81 85.35 165.33 16.61 -0.59 0.01 1.76 28.32 -8.30 0.00 0.00 0.00 -4.17 0.18 2.03 55.35 -27.75 -37.38 24.36 -23.02 22.43 7.78 4.25 -0.17 -5.62 0.07 -1.66 -16.17 3.57 -13.16 14.94 -75.83 47.85 -19.98 -1.11 -0.50 10.49 8.45 -17.51 15.86 -21.27 -14.72 
8.0227 42.9239 5.9412 -28.52 -4.08 27.86 21.80 -21.02 4.82 -2.69 18.84 -5.24 7.10 -4.17 -0.56 -9.82 -61.51 -32.17 -19.70 89.30 19.87 16.03 -0.33 -0.11 0.47 27.21 -7.26 0.00 0.00 0.00 -2.95 0.07 2.87 49.03 -23.70 -41.44 23.30 -20.24 23.03 6.73 5.15 -0.20 -5.88 0.06 -1.58 -16.10 3.31 -11.61 9.79 -72.13 43.12 -18.47 -1.79 -0.57 7.83 8.12 -16.08 17.09 -20.71 -14.38 
8.1722 42.9724 6.1799 -27.30 -3.27 26.49 20.68 -19.10 4.91 -3.07 17.01 -4.06 6.71 -4.28 -0.59 -1.77 -59.13 -20.64 10.51 82.97 -11.48 15.54 0.15 -0.25 -0.75 25.84 -6.68 0.00 0.00 0.00 -2.79 0.03 3.25 44.43 -19.46 -44.20 21.98 -18.11 22.87 5.19 6.71 -0.23 -5.40 0.06 -1.77 -16.66 2.96 -10.15 7.20 -68.84 40.14 -16.24 -0.93 -0.38 7.67 8.16 -15.45 16.51 -21.01 -13.72 
8.3851 42.9805 6.4578 -25.72 -2.40 25.83 18.77 -17.15 4.19 -3.27 14.80 -2.93 6.39 -4.35 -0.60 3.14 -56.28 -11.12 15.50 76.07 -17.91 14.95 0.56 -0.35 -1.91 24.46 -6.48 0.00 0.00 0.00 -2.26 0.00 3.49 39.27 -15.86 -46.51 20.28 -15.60 22.14 3.88 7.60 -0.20 -5.05 0.07 -1.88 -16.85 2.94 -9.04 4.13 -64.62 37.07 -13.18 -0.09 -0.21 7.65 8.24 -15.00 15.74 -21.47 -13.17 
8.6899 42.9907 6.7088 -23.88 -1.71 26.04 16.07 -15.27 2.57 -2.87 12.47 -1.97 6.11 -4.40 -0.56 5.28 -52.80 -4.06 16.58 68.27 -21.25 14.81 1.36 -0.47 -3.03 23.45 -6.33 0.00 0.00 0.00 -0.71 -0.00 3.55 33.35 -13.28 -47.73 18.70 -12.91 21.44 2.92 7.57 -0.15 -4.03 0.07 -2.14 -17.78 4.07 -8.15 2.23 -60.89 35.04 -10.73 0.92 -0.08 8.09 7.21 -15.00 14.35 -21.29 -13.03 
9.0012 42.9592 6.9962 -21.96 -0.88 26.98 13.23 -13.70 0.47 -2.66 10.22 -1.08 6.22 -4.27 -0.55 5.86 -47.88 1.25 14.56 57.74 -21.94 14.39 3.50 -0.77 -3.85 22.36 -6.40 0.00 0.00 0.00 -0.32 -0.00 3.55 29.06 -11.62 -48.18 17.31 -10.36 21.41 2.08 7.48 -0.10 -3.83 0.07 -2.09 -17.22 5.83 -8.32 0.34 -56.93 33.32 -8.99 1.49 -0.02 8.39 6.89 -15.07 13.35 -21.51 -12.95 
9.3762 42.9149 7.2871 -20.13 -0.22 28.51 10.44 -12.23 -1.93 -2.43 8.25 -0.47 6.45 -4.05 -0.52 5.28 -42.82 5.39 12.47 46.66 -22.69 13.43 4.86 -0.83 -4.32 21.50 -6.67 0.00 0.00 0.00 0.70 0.00 3.47 24.72 -10.18 -47.67 16.30 -9.02 21.39 1.76 8.02 -0.10 -3.22 0.07 -2.23 -16.96 7.74 -8.46 -0.61 -53.35 32.24 -7.91 2.12 0.03 7.16 6.57 -14.72 13.71 -21.31 -13.08 
9.8337 42.8644 7.5830 -18.43 0.17 30.42 7.82 -10.48 -3.49 -2.05 6.34 -1.16 6.78 -3.80 -0.44 5.60 -37.45 10.53 8.86 34.97 -23.52 12.50 5.63 -0.79 -4.46 20.75 -7.13 0.00 0.00 0.00 1.24 0.01 3.41 21.23 -8.88 -46.81 15.86 -8.31 22.12 1.78 8.75 -0.11 -2.33 0.06 -2.55 -17.07 9.55 -8.02 -1.29 -49.44 31.02 -7.43 2.87 0.07 6.22 7.07 -14.33 13.96 -21.98 -12.94 
10.2079 42.7193 7.9576 -16.81 0.59 32.42 5.69 -8.79 -3.69 -1.91 4.81 -3.25 7.11 -3.72 -0.35 5.57 -31.28 13.60 3.82 22.06 -23.12 11.14 7.28 -1.05 -4.34 19.99 -7.40 0.00 0.00 0.00 1.24 0.01 3.39 18.65 -7.99 -46.65 16.13 -7.84 23.96 1.80 9.10 -0.12 -1.79 0.05 -2.76 -16.46 10.86 -7.84 -2.95 -44.79 29.39 -6.62 3.24 0.09 6.67 6.18 -14.39 12.79 -21.71 -12.86 
10.6846 42.5182 8.3097 -15.41 0.97 34.82 3.81 -7.15 -3.64 -2.04 3.45 -5.88 7.70 -3.66 -0.30 4.71 -26.97 15.21 1.81 11.80 -24.64 9.21 7.42 -0.86 -3.95 19.25 -7.72 0.00 0.00 0.00 1.70 0.01 3.33 15.91 -7.34 -47.24 16.99 -8.04 25.87 1.78 9.37 -0.12 -1.02 0.03 -3.15 -16.19 11.42 -7.38 -4.09 -39.69 28.82 -5.39 3.72 0.09 5.95 6.15 -14.11 12.71 -21.92 -12.81 
11.2007 42.3702 8.6024 -14.21 1.46 37.12 1.89 -5.76 -3.62 -1.89 2.43 -8.41 8.14 -3.71 -0.20 3.18 -25.01 15.50 2.43 5.58 -27.33 8.31 5.83 -0.43 -3.40 18.52 -7.99 0.00 0.00 0.00 1.60 0.01 3.34 14.39 -7.04 -48.56 17.48 -8.59 27.64 1.86 9.03 -0.12 -0.00 -0.01 -3.68 -16.20 11.34 -6.62 -5.46 -34.24 28.30 -3.82 3.91 0.07 5.74 6.75 -14.05 12.38 -22.84 -12.71 
